<?xml version="1.0" encoding="UTF-8"?>
<!DOCTYPE svg PUBLIC "-//W3C//DTD SVG 1.1//EN" "http://www.w3.org/Graphics/SVG/1.1/DTD/svg11.dtd">
<!-- Creator: CorelDRAW X7 -->
<svg xmlns="http://www.w3.org/2000/svg" xml:space="preserve" width="210mm" height="210mm" version="1.1" style="shape-rendering:geometricPrecision; text-rendering:geometricPrecision; image-rendering:optimizeQuality; fill-rule:evenodd; clip-rule:evenodd"
viewBox="0 0 21000 21000"
 xmlns:xlink="http://www.w3.org/1999/xlink">
 <defs>
  <style type="text/css">
   <![CDATA[
    .str0 {stroke:#5A4294;stroke-width:7.62}
    .fil1 {fill:#2B2A29;fill-rule:nonzero}
    .fil0 {fill:#5A4294;fill-rule:nonzero}
   ]]>
  </style>
 </defs>
 <g id="ѓЊѓCѓ_x201e_Ѓ_x005b__x0020_1">
  <metadata id="CorelCorpID_0Corel-Layer"/>
  <path class="fil0 str0" d="M11323 20878l-1640 0c-71,0 -131,-56 -131,-128l-36 -1905c-1,-44 -33,-81 -76,-86 -729,-92 -1444,-285 -2123,-570 -11,-3 -23,-5 -34,-5 -30,0 -60,15 -75,42l-984 1631c-23,40 -67,64 -112,64 -23,0 -45,-6 -65,-18l-1421 -819c-61,-35 -82,-114 -49,-177l923 -1668c22,-39 11,-86 -23,-113 -584,-447 -1107,-970 -1555,-1554 -17,-23 -43,-34 -69,-34 -15,0 -29,4 -42,10l-1669 923c-20,11 -42,16 -64,16 -47,0 -89,-24 -114,-66l-818 -1419c-37,-62 -17,-141 45,-177l1632 -985c38,-22 52,-68 36,-109 -285,-681 -477,-1396 -570,-2123 -5,-43 -41,-74 -86,-76l-1904 -35c-71,-1 -128,-59 -128,-131l0 -1640c0,-72 57,-129 128,-130l1904 -36c45,-1 81,-34 86,-77 93,-727 285,-1441 570,-2123 16,-40 1,-86 -36,-109l-1632 -983c-62,-37 -82,-117 -45,-178l818 -1421c25,-41 67,-64 114,-64 22,0 44,4 64,15l1669 923c13,7 27,11 42,11 26,0 52,-11 69,-34 446,-584 970,-1106 1555,-1554 34,-26 44,-73 23,-112l-923 -1669c-33,-63 -12,-141 49,-177l1421 -820c20,-12 42,-18 65,-18 45,0 89,24 112,64l984 1633c15,26 45,41 75,41 12,0 23,-2 34,-6 680,-284 1395,-476 2123,-569 43,-7 75,-42 76,-85l36 -1907c0,-70 60,-127 131,-127l1640 0c70,0 129,57 129,127l37 1907c1,43 33,78 77,85 728,93 1442,285 2123,569 11,4 22,6 32,6 30,0 60,-15 75,-41l984 -1633c25,-40 67,-64 113,-64 23,0 45,6 65,18l1422 820c60,36 83,114 47,177l-922 1669c-21,39 -11,86 24,112 584,448 1107,970 1554,1554 17,23 43,34 68,34 16,0 30,-4 43,-11l1669 -923c20,-11 42,-16 65,-16 45,0 87,24 112,65l820 1421c35,61 15,141 -46,178l-1632 983c-36,23 -54,69 -36,109 285,682 476,1396 569,2123 6,43 43,76 86,77l1904 36c72,1 129,58 129,130l0 1640c0,72 -57,130 -128,131l-1905 35c-43,2 -80,33 -86,76 -93,728 -284,1443 -569,2123 -18,41 -2,87 35,109l1633 985c61,36 81,115 46,176l-820 1420c-25,42 -67,66 -112,66 -23,0 -45,-5 -65,-16l-1669 -923c-13,-6 -27,-10 -43,-10 -25,0 -51,11 -68,34 -447,584 -970,1107 -1554,1554 -35,27 -45,73 -24,112l922 1669c36,63 13,141 -47,176l-1422 820c-20,12 -42,18 -65,18 -46,0 -88,-24 -113,-64l-984 -1631c-16,-27 -45,-42 -75,-42 -11,0 -21,2 -32,5 -680,285 -1395,478 -2123,570 -44,5 -76,42 -77,86l-37 1904c0,73 -59,129 -129,129z"/>
  <path class="fil1" d="M25358 9812l-152 -3c-4,0 -7,-3 -7,-6 -8,-59 -23,-116 -46,-171 -1,-3 0,-7 3,-9l131 -79c5,-3 6,-9 4,-14l-66 -114c-2,-3 -6,-5 -9,-5 -2,0 -4,0 -5,1l-134 74c-2,1 -3,1 -4,1 -2,0 -4,-1 -5,-3 -36,-47 -78,-88 -125,-124 -3,-3 -4,-6 -2,-9l74 -134c3,-5 1,-12 -4,-15l-114 -65c-2,-1 -3,-2 -5,-2 -4,0 -7,2 -9,5l-79 131c-1,2 -4,4 -6,4 -1,0 -2,-1 -3,-1 -55,-23 -112,-38 -170,-46 -4,0 -6,-3 -6,-6l-3 -153c0,-6 -5,-11 -11,-11l-132 0c-5,0 -10,5 -10,11l-3 153c0,3 -3,6 -6,6 -58,8 -116,23 -170,46 -1,0 -2,1 -3,1 -3,0 -5,-2 -6,-4l-79 -131c-2,-3 -6,-5 -9,-5 -2,0 -4,1 -5,2l-115 65c-4,3 -6,10 -3,15l74 134c1,3 1,6 -2,9 -47,36 -89,77 -125,124 -1,2 -4,3 -6,3 -1,0 -2,0 -3,-1l-134 -74c-2,-1 -3,-1 -5,-1 -4,0 -7,2 -9,5l-66 114c-3,5 -1,11 4,14l131 79c3,2 4,6 3,9 -23,55 -39,112 -46,171 -1,3 -4,6 -7,6l-153 3c-6,0 -10,4 -10,10l0 132c0,5 4,10 10,10l153 3c3,0 6,3 7,6 7,59 23,116 46,171 1,3 0,7 -3,8l-131 79c-5,3 -7,10 -4,15l66 114c2,3 5,5 9,5 2,0 3,-1 5,-1l134 -74c1,-1 2,-1 3,-1 2,0 5,1 6,2 36,47 78,89 125,125 3,2 3,6 2,9l-74 134c-3,5 -1,12 3,14l115 66c1,1 3,2 5,2 3,0 7,-2 9,-5l79 -132c1,-2 3,-3 6,-3 1,0 2,0 2,1 55,22 112,38 171,45 3,1 6,4 6,7l3 153c0,6 5,10 10,10l132 0c6,0 11,-4 11,-10l3 -153c0,-3 2,-6 6,-7 58,-7 116,-23 170,-45 1,-1 2,-1 3,-1 2,0 4,1 6,3l79 132c2,3 5,5 9,5 2,0 3,-1 5,-2l114 -66c5,-3 7,-9 4,-14l-74 -134c-2,-3 -1,-7 2,-9 47,-36 89,-78 125,-125 1,-1 3,-2 5,-2 1,0 2,0 4,1l134 74c1,0 3,1 5,1 3,0 7,-2 9,-5l66 -115c2,-4 1,-11 -4,-14l-131 -79c-3,-1 -4,-5 -3,-8 23,-55 38,-112 46,-171 0,-3 3,-6 7,-6l153 -3c5,0 10,-5 10,-10l0 -132c0,-6 -5,-10 -11,-10zm-819 522l0 0c-246,0 -446,-199 -446,-446 0,-247 200,-447 446,-447 247,0 447,200 447,447 0,247 -200,446 -447,446z"/>
  <path class="fil1" d="M25358 7972l-152 -3c-4,0 -7,-2 -7,-6 -8,-58 -23,-116 -46,-170 -1,-4 0,-7 3,-9l131 -79c5,-3 6,-9 4,-14l-66 -114c-2,-4 -6,-6 -9,-6 -2,0 -4,1 -5,2l-134 74c-2,0 -3,1 -4,1 -2,0 -4,-1 -5,-3 -36,-47 -78,-89 -125,-125 -3,-2 -4,-6 -2,-9l74 -134c3,-5 1,-11 -4,-14l-114 -66c-2,-1 -3,-1 -5,-1 -4,0 -7,2 -9,5l-79 131c-1,2 -4,3 -6,3 -1,0 -2,0 -3,0 -55,-23 -112,-39 -170,-46 -4,-1 -6,-3 -6,-7l-3 -153c0,-6 -5,-10 -11,-10l-132 0c-5,0 -10,4 -10,10l-3 153c0,4 -3,6 -6,7 -58,7 -116,23 -170,46 -1,0 -2,0 -3,0 -3,0 -5,-1 -6,-3l-79 -131c-2,-3 -6,-5 -9,-5 -2,0 -4,0 -5,1l-115 66c-4,3 -6,9 -3,14l74 134c1,3 1,7 -2,9 -47,36 -89,78 -125,125 -1,2 -4,3 -6,3 -1,0 -2,-1 -3,-1l-134 -74c-2,-1 -3,-2 -5,-2 -4,0 -7,2 -9,6l-66 114c-3,5 -1,11 4,14l131 79c3,2 4,5 3,9 -23,54 -39,112 -46,170 -1,4 -4,6 -7,6l-153 3c-6,0 -10,5 -10,11l0 131c0,6 4,11 10,11l153 3c3,0 6,2 7,6 7,58 23,115 46,170 1,3 0,7 -3,9l-131 79c-5,3 -7,9 -4,14l66 114c2,3 5,5 9,5 2,0 3,0 5,-1l134 -74c1,-1 2,-1 3,-1 2,0 5,1 6,3 36,47 78,89 125,125 3,2 3,6 2,9l-74 134c-3,5 -1,11 3,14l115 66c1,1 3,1 5,1 3,0 7,-2 9,-5l79 -131c1,-2 3,-3 6,-3 1,0 2,0 2,0 55,23 112,38 171,46 3,0 6,3 6,7l3 153c0,5 5,10 10,10l132 0c6,0 11,-5 11,-10l3 -153c0,-4 2,-7 6,-7 58,-8 116,-23 170,-46 1,0 2,0 3,0 2,0 4,1 6,3l79 131c2,3 5,5 9,5 2,0 3,0 5,-1l114 -66c5,-3 7,-9 4,-14l-74 -134c-2,-3 -1,-7 2,-9 47,-36 89,-78 125,-125 1,-2 3,-3 5,-3 1,0 2,0 4,1l134 74c1,1 3,1 5,1 3,0 7,-2 9,-5l66 -114c2,-5 1,-11 -4,-14l-131 -79c-3,-2 -4,-6 -3,-9 23,-54 38,-112 46,-170 0,-4 3,-6 7,-6l153 -3c5,0 10,-5 10,-11l0 -131c0,-6 -5,-11 -11,-11zm-1215 -153l0 0c33,-57 107,-77 164,-44 58,34 78,107 45,165 -34,58 -107,78 -165,44 -58,-33 -78,-107 -44,-165zm164 503l0 0c-57,33 -131,13 -164,-45 -34,-57 -14,-131 44,-164 58,-34 131,-14 165,44 33,57 13,131 -45,165zm232 184l0 0c-66,0 -120,-54 -120,-120 0,-67 54,-121 120,-121 67,0 121,54 121,121 0,66 -54,120 -121,120zm-94 -458l0 0c0,-48 40,-88 89,-88 48,0 88,40 88,88 0,49 -40,89 -88,89 -49,0 -89,-40 -89,-89zm94 -216l0 0c-66,0 -120,-54 -120,-121 0,-66 54,-120 120,-120 67,0 121,54 121,120 0,67 -54,121 -121,121zm397 445l0 0c-33,58 -107,78 -165,45 -58,-34 -77,-108 -44,-165 33,-58 107,-78 165,-44 57,33 77,107 44,164zm-44 -293l0 0c-58,34 -132,14 -165,-44 -33,-58 -14,-131 44,-165 58,-33 132,-13 165,44 33,58 13,132 -44,165z"/>
 </g>
</svg>
