<?xml version="1.0" encoding="UTF-8"?>
<!DOCTYPE svg PUBLIC "-//W3C//DTD SVG 1.1//EN" "http://www.w3.org/Graphics/SVG/1.1/DTD/svg11.dtd">
<!-- Creator: CorelDRAW X7 -->
<svg xmlns="http://www.w3.org/2000/svg" xml:space="preserve" width="210mm" height="210mm" version="1.1" style="shape-rendering:geometricPrecision; text-rendering:geometricPrecision; image-rendering:optimizeQuality; fill-rule:evenodd; clip-rule:evenodd"
viewBox="0 0 21000 21000"
 xmlns:xlink="http://www.w3.org/1999/xlink">
 <defs>
  <style type="text/css">
   <![CDATA[
    .str0 {stroke:#9A7014;stroke-width:7.62}
    .fil1 {fill:#2B2A29;fill-rule:nonzero}
    .fil0 {fill:#9A7014;fill-rule:nonzero}
   ]]>
  </style>
 </defs>
 <g id="ѓЊѓCѓ_x201e_Ѓ_x005b__x0020_1">
  <metadata id="CorelCorpID_0Corel-Layer"/>
  <path class="fil0 str0" d="M20420 9523l-1844 -34c-41,-1 -76,-33 -82,-74 -91,-704 -275,-1396 -551,-2055 -17,-39 -1,-83 34,-105l1580 -952c59,-36 79,-113 45,-172l-794 -1376c-24,-39 -65,-63 -108,-63 -23,0 -44,6 -63,16l-1616 894c-13,7 -26,10 -41,10 -25,0 -50,-11 -66,-32 -433,-567 -940,-1072 -1505,-1505 -33,-26 -43,-72 -23,-109l893 -1616c34,-59 12,-136 -46,-170l-1377 -794c-19,-11 -40,-17 -62,-17 -44,0 -85,24 -109,62l-953 1580c-14,26 -43,41 -72,41 -10,0 -21,-3 -32,-7 -658,-275 -1350,-461 -2054,-551 -42,-5 -74,-41 -74,-83l-36 -1844c0,-69 -57,-124 -126,-124l-1587 0c-69,0 -126,55 -127,124l-35 1844c-1,42 -31,78 -73,83 -704,90 -1397,276 -2054,551 -12,4 -22,7 -34,7 -29,0 -58,-15 -72,-41l-953 -1580c-23,-38 -64,-62 -108,-62 -22,0 -44,6 -63,17l-1375 794c-59,34 -80,111 -48,170l894 1616c20,37 10,83 -23,109 -566,433 -1073,938 -1505,1505 -16,21 -42,32 -66,32 -15,0 -29,-3 -41,-10l-1616 -893c-19,-11 -40,-16 -62,-16 -45,0 -86,23 -110,62l-792 1376c-36,59 -16,136 43,172l1580 952c36,22 50,66 35,105 -276,659 -461,1351 -552,2055 -4,41 -40,73 -82,74l-1844 34c-68,1 -124,57 -124,127l0 1588c0,68 56,125 124,126l1844 34c42,1 78,32 82,74 91,704 276,1395 552,2055 15,38 3,84 -35,105l-1580 953c-59,34 -79,112 -43,171l792 1375c24,39 65,63 110,63 22,0 43,-5 62,-15l1616 -893c12,-8 26,-11 41,-11 24,0 50,11 66,33 433,566 940,1073 1505,1505 33,26 43,71 23,108l-894 1616c-32,60 -11,136 48,170l1375 794c19,11 41,17 63,17 44,0 85,-23 108,-62l953 -1579c14,-26 43,-41 72,-41 11,0 22,2 33,6 658,275 1350,461 2055,552 42,5 72,40 73,82l35 1844c1,69 58,124 127,124l1587 0c69,0 126,-55 126,-124l36 -1844c0,-42 32,-77 74,-82 704,-91 1397,-277 2054,-552 11,-4 21,-6 32,-6 29,0 57,15 72,41l953 1579c24,39 65,62 109,62 22,0 43,-6 62,-17l1377 -794c58,-34 80,-111 46,-171l-893 -1615c-20,-37 -10,-83 23,-108 565,-433 1072,-939 1505,-1505 16,-22 41,-33 66,-33 15,0 28,3 41,11l1616 893c19,10 40,15 63,15 43,0 84,-24 108,-63l794 -1375c34,-59 14,-136 -45,-171l-1581 -953c-35,-21 -50,-67 -33,-105 276,-659 460,-1350 551,-2055 6,-42 41,-73 82,-74l1844 -34c69,-1 124,-58 124,-126l0 -1588c0,-70 -55,-126 -124,-127zm-9876 2102l0 0c-652,0 -1181,-529 -1181,-1181 0,-653 529,-1182 1181,-1182 654,0 1182,529 1182,1182 0,652 -528,1181 -1182,1181z"/>
  <path class="fil1" d="M24605 12645l-132 0c-5,0 -10,-5 -10,-10l-3 -153c0,-4 -3,-7 -6,-7 -59,-8 -116,-23 -171,-46 0,0 -1,0 -2,0 -3,0 -5,1 -6,3l-79 131c-2,3 -6,5 -9,5 -2,0 -4,0 -5,-1l-115 -66c-4,-3 -6,-9 -3,-14l74 -134c1,-3 1,-7 -2,-9 -47,-36 -89,-78 -125,-125 -1,-2 -4,-3 -6,-3 -1,0 -2,1 -3,1l-134 74c-2,1 -3,1 -5,1 -4,0 -7,-2 -9,-5l-66 -114c-3,-5 -1,-11 4,-14l131 -79c3,-2 4,-6 3,-9 -23,-54 -39,-112 -46,-170 -1,-4 -4,-6 -7,-6l-153 -3c-6,0 -10,-5 -10,-11l0 -131c0,-6 4,-11 10,-11l153 -3c3,0 6,-2 7,-6 7,-58 23,-116 46,-170 1,-4 0,-7 -3,-9l-131 -79c-5,-3 -7,-9 -4,-14l66 -114c2,-4 5,-6 9,-6 2,0 3,1 5,2l134 74c1,0 2,1 3,1 2,0 5,-1 6,-3 36,-47 78,-89 125,-125 3,-2 3,-6 2,-9l-74 -134c-3,-5 -1,-11 3,-14l115 -66c1,-1 3,-1 5,-1 3,0 7,2 9,5l79 131c1,2 3,3 6,3 1,0 2,0 3,0 54,-23 112,-39 170,-46 3,-1 6,-3 6,-7l3 -153c0,-6 5,-10 10,-10l132 0c6,0 11,4 11,10l3 153c0,4 2,6 6,7 58,7 115,23 170,46 1,0 2,0 3,0 2,0 5,-1 6,-3l79 -131c2,-3 5,-5 9,-5 2,0 3,0 5,1l114 66c5,3 7,9 4,14l-74 134c-2,3 -1,7 2,9 47,36 89,78 125,125 1,2 3,3 5,3 1,0 2,-1 4,-1l134 -74c1,-1 3,-2 5,-2 3,0 7,2 9,6l66 114c2,5 1,11 -4,14l-131 79c-3,2 -4,5 -3,9 23,54 38,112 46,170 0,4 3,6 7,6l152 3c6,0 11,5 11,11l0 131c0,6 -5,11 -10,11l-153 3c-4,0 -7,2 -7,6 -8,58 -23,116 -46,170 -1,3 0,7 3,9l131 79c5,3 6,9 4,14l-66 114c-2,3 -6,5 -9,5 -2,0 -4,0 -5,-1l-134 -74c-2,0 -3,-1 -4,-1 -2,0 -4,1 -5,3 -36,47 -78,89 -125,125 -3,2 -4,6 -2,9l74 134c3,5 1,11 -4,14l-114 66c-2,1 -3,1 -5,1 -4,0 -7,-2 -9,-5l-79 -131c-2,-2 -4,-3 -6,-3 -1,0 -2,0 -3,0 -54,23 -112,38 -170,46 -4,0 -6,3 -6,7l-3 153c0,5 -5,10 -11,10z"/>
  <path class="fil1" d="M25358 9812l-152 -3c-4,0 -7,-3 -7,-6 -8,-59 -23,-116 -46,-171 -1,-3 0,-7 3,-9l131 -79c5,-3 6,-9 4,-14l-66 -114c-2,-3 -6,-5 -9,-5 -2,0 -4,0 -5,1l-134 74c-2,1 -3,1 -4,1 -2,0 -4,-1 -5,-3 -36,-47 -78,-88 -125,-124 -3,-3 -4,-6 -2,-9l74 -134c3,-5 1,-12 -4,-15l-114 -65c-2,-1 -3,-2 -5,-2 -4,0 -7,2 -9,5l-79 131c-1,2 -4,4 -6,4 -1,0 -2,-1 -3,-1 -55,-23 -112,-38 -170,-46 -4,0 -6,-3 -6,-6l-3 -153c0,-6 -5,-11 -11,-11l-132 0c-5,0 -10,5 -10,11l-3 153c0,3 -3,6 -6,6 -58,8 -116,23 -170,46 -1,0 -2,1 -3,1 -3,0 -5,-2 -6,-4l-79 -131c-2,-3 -6,-5 -9,-5 -2,0 -4,1 -5,2l-115 65c-4,3 -6,10 -3,15l74 134c1,3 1,6 -2,9 -47,36 -89,77 -125,124 -1,2 -4,3 -6,3 -1,0 -2,0 -3,-1l-134 -74c-2,-1 -3,-1 -5,-1 -4,0 -7,2 -9,5l-66 114c-3,5 -1,11 4,14l131 79c3,2 4,6 3,9 -23,55 -39,112 -46,171 -1,3 -4,6 -7,6l-153 3c-6,0 -10,4 -10,10l0 132c0,5 4,10 10,10l153 3c3,0 6,3 7,6 7,59 23,116 46,171 1,3 0,7 -3,8l-131 79c-5,3 -7,10 -4,15l66 114c2,3 5,5 9,5 2,0 3,-1 5,-1l134 -74c1,-1 2,-1 3,-1 2,0 5,1 6,2 36,47 78,89 125,125 3,2 3,6 2,9l-74 134c-3,5 -1,12 3,14l115 66c1,1 3,2 5,2 3,0 7,-2 9,-5l79 -132c1,-2 3,-3 6,-3 1,0 2,0 2,1 55,22 112,38 171,45 3,1 6,4 6,7l3 153c0,6 5,10 10,10l132 0c6,0 11,-4 11,-10l3 -153c0,-3 2,-6 6,-7 58,-7 116,-23 170,-45 1,-1 2,-1 3,-1 2,0 4,1 6,3l79 132c2,3 5,5 9,5 2,0 3,-1 5,-2l114 -66c5,-3 7,-9 4,-14l-74 -134c-2,-3 -1,-7 2,-9 47,-36 89,-78 125,-125 1,-1 3,-2 5,-2 1,0 2,0 4,1l134 74c1,0 3,1 5,1 3,0 7,-2 9,-5l66 -115c2,-4 1,-11 -4,-14l-131 -79c-3,-1 -4,-5 -3,-8 23,-55 38,-112 46,-171 0,-3 3,-6 7,-6l153 -3c5,0 10,-5 10,-10l0 -132c0,-6 -5,-10 -11,-10zm-819 522l0 0c-246,0 -446,-199 -446,-446 0,-247 200,-447 446,-447 247,0 447,200 447,447 0,247 -200,446 -447,446z"/>
  <path class="fil1" d="M25358 7972l-152 -3c-4,0 -7,-2 -7,-6 -8,-58 -23,-116 -46,-170 -1,-4 0,-7 3,-9l131 -79c5,-3 6,-9 4,-14l-66 -114c-2,-4 -6,-6 -9,-6 -2,0 -4,1 -5,2l-134 74c-2,0 -3,1 -4,1 -2,0 -4,-1 -5,-3 -36,-47 -78,-89 -125,-125 -3,-2 -4,-6 -2,-9l74 -134c3,-5 1,-11 -4,-14l-114 -66c-2,-1 -3,-1 -5,-1 -4,0 -7,2 -9,5l-79 131c-1,2 -4,3 -6,3 -1,0 -2,0 -3,0 -55,-23 -112,-39 -170,-46 -4,-1 -6,-3 -6,-7l-3 -153c0,-6 -5,-10 -11,-10l-132 0c-5,0 -10,4 -10,10l-3 153c0,4 -3,6 -6,7 -58,7 -116,23 -170,46 -1,0 -2,0 -3,0 -3,0 -5,-1 -6,-3l-79 -131c-2,-3 -6,-5 -9,-5 -2,0 -4,0 -5,1l-115 66c-4,3 -6,9 -3,14l74 134c1,3 1,7 -2,9 -47,36 -89,78 -125,125 -1,2 -4,3 -6,3 -1,0 -2,-1 -3,-1l-134 -74c-2,-1 -3,-2 -5,-2 -4,0 -7,2 -9,6l-66 114c-3,5 -1,11 4,14l131 79c3,2 4,5 3,9 -23,54 -39,112 -46,170 -1,4 -4,6 -7,6l-153 3c-6,0 -10,5 -10,11l0 131c0,6 4,11 10,11l153 3c3,0 6,2 7,6 7,58 23,115 46,170 1,3 0,7 -3,9l-131 79c-5,3 -7,9 -4,14l66 114c2,3 5,5 9,5 2,0 3,0 5,-1l134 -74c1,-1 2,-1 3,-1 2,0 5,1 6,3 36,47 78,89 125,125 3,2 3,6 2,9l-74 134c-3,5 -1,11 3,14l115 66c1,1 3,1 5,1 3,0 7,-2 9,-5l79 -131c1,-2 3,-3 6,-3 1,0 2,0 2,0 55,23 112,38 171,46 3,0 6,3 6,7l3 153c0,5 5,10 10,10l132 0c6,0 11,-5 11,-10l3 -153c0,-4 2,-7 6,-7 58,-8 116,-23 170,-46 1,0 2,0 3,0 2,0 4,1 6,3l79 131c2,3 5,5 9,5 2,0 3,0 5,-1l114 -66c5,-3 7,-9 4,-14l-74 -134c-2,-3 -1,-7 2,-9 47,-36 89,-78 125,-125 1,-2 3,-3 5,-3 1,0 2,0 4,1l134 74c1,1 3,1 5,1 3,0 7,-2 9,-5l66 -114c2,-5 1,-11 -4,-14l-131 -79c-3,-2 -4,-6 -3,-9 23,-54 38,-112 46,-170 0,-4 3,-6 7,-6l153 -3c5,0 10,-5 10,-11l0 -131c0,-6 -5,-11 -11,-11zm-1215 -153l0 0c33,-57 107,-77 164,-44 58,34 78,107 45,165 -34,58 -107,78 -165,44 -58,-33 -78,-107 -44,-165zm164 503l0 0c-57,33 -131,13 -164,-45 -34,-57 -14,-131 44,-164 58,-34 131,-14 165,44 33,57 13,131 -45,165zm232 184l0 0c-66,0 -120,-54 -120,-120 0,-67 54,-121 120,-121 67,0 121,54 121,121 0,66 -54,120 -121,120zm-94 -458l0 0c0,-48 40,-88 89,-88 48,0 88,40 88,88 0,49 -40,89 -88,89 -49,0 -89,-40 -89,-89zm94 -216l0 0c-66,0 -120,-54 -120,-121 0,-66 54,-120 120,-120 67,0 121,54 121,120 0,67 -54,121 -121,121zm397 445l0 0c-33,58 -107,78 -165,45 -58,-34 -77,-108 -44,-165 33,-58 107,-78 165,-44 57,33 77,107 44,164zm-44 -293l0 0c-58,34 -132,14 -165,-44 -33,-58 -14,-131 44,-165 58,-33 132,-13 165,44 33,58 13,132 -44,165z"/>
  <path class="fil1" d="M25358 6181l-152 -3c-4,0 -7,-3 -7,-6 -8,-59 -23,-116 -46,-171 -1,-3 0,-7 3,-9l131 -79c5,-3 6,-9 4,-14l-66 -114c-2,-3 -6,-5 -9,-5 -2,0 -4,0 -5,1l-134 74c-2,1 -3,1 -4,1 -2,0 -4,-1 -5,-3 -36,-47 -78,-88 -125,-124 -3,-3 -4,-6 -2,-9l74 -134c3,-5 1,-12 -4,-15l-114 -66c-2,0 -3,-1 -5,-1 -4,0 -7,2 -9,5l-79 131c-1,2 -4,4 -6,4 -1,0 -2,-1 -3,-1 -55,-23 -112,-38 -170,-46 -4,0 -6,-3 -6,-6l-3 -153c0,-6 -5,-11 -11,-11l-132 0c-5,0 -10,5 -10,11l-3 153c0,3 -3,6 -6,6 -58,8 -116,23 -170,46 -1,0 -2,1 -3,1 -3,0 -5,-2 -6,-4l-79 -131c-2,-3 -6,-5 -9,-5 -2,0 -4,1 -5,1l-115 66c-4,3 -6,10 -3,15l74 134c1,3 1,6 -2,9 -47,36 -89,77 -125,124 -1,2 -4,3 -6,3 -1,0 -2,0 -3,-1l-134 -74c-2,-1 -3,-1 -5,-1 -4,0 -7,2 -9,5l-66 114c-3,5 -1,11 4,14l131 79c3,2 4,6 3,9 -23,55 -39,112 -46,171 -1,3 -4,6 -7,6l-153 3c-6,0 -10,4 -10,10l0 132c0,5 4,10 10,10l153 3c3,0 6,3 7,6 7,59 23,116 46,171 1,3 0,7 -3,8l-131 79c-5,3 -7,10 -4,15l66 114c2,3 5,5 9,5 2,0 3,-1 5,-1l134 -74c1,-1 2,-1 3,-1 2,0 5,1 6,2 36,47 78,89 125,125 3,2 3,6 2,9l-74 134c-3,5 -1,12 3,14l115 66c1,1 3,2 5,2 3,0 7,-2 9,-6l79 -131c1,-2 3,-3 6,-3 1,0 2,0 2,1 55,22 112,38 171,45 3,1 6,4 6,7l3 153c0,6 5,10 10,10l132 0c6,0 11,-4 11,-10l3 -153c0,-3 2,-6 6,-7 58,-7 116,-23 170,-45 1,-1 2,-1 3,-1 2,0 4,1 6,3l79 131c2,4 5,6 9,6 2,0 3,-1 5,-2l114 -66c5,-3 7,-9 4,-14l-74 -134c-2,-3 -1,-7 2,-9 47,-36 89,-78 125,-125 1,-1 3,-2 5,-2 1,0 2,0 4,1l134 74c1,0 3,1 5,1 3,0 7,-2 9,-5l66 -114c2,-5 1,-12 -4,-15l-131 -79c-3,-1 -4,-5 -3,-8 23,-55 38,-112 46,-171 0,-3 3,-6 7,-6l153 -3c5,0 10,-5 10,-10l0 -132c0,-6 -5,-10 -11,-10zm-769 -445l0 0c124,12 236,67 319,151 47,47 86,103 112,165 -2,11 -10,21 -21,24l-367 104c-7,2 -16,2 -25,0 -10,-7 -18,-24 -18,-36l-14 -381c-1,-11 5,-21 14,-27zm10 521l0 0c0,33 -27,59 -60,59 -33,0 -59,-26 -59,-59 0,-33 26,-60 59,-60 33,0 60,27 60,60zm-429 -370l0 0c85,-85 198,-140 324,-151 10,6 16,16 16,27l-14 381c-1,8 -4,16 -8,23 -10,9 -28,11 -40,7l-367 -104c-10,-3 -18,-12 -21,-22 27,-61 64,-115 110,-161zm24 760l0 0c-8,-7 -16,-14 -24,-22 -94,-95 -153,-225 -153,-369 0,-41 5,-80 14,-118 8,-7 20,-10 30,-6l359 131c6,2 14,8 19,15 5,11 1,29 -5,39l-213 317c-6,9 -17,14 -27,13zm610 59l0 0c-77,46 -168,72 -265,72 -98,0 -190,-27 -269,-75 -4,-10 -4,-22 3,-31l236 -300c4,-6 12,-11 20,-14 13,-1 29,8 36,17l235 300c7,9 8,21 4,31zm104 -81l0 0c-8,9 -17,17 -27,25 -11,1 -22,-3 -28,-13l-213 -316c-4,-6 -7,-15 -7,-24 3,-12 17,-25 28,-29l358 -131c10,-4 22,-1 30,6 8,36 12,74 12,113 0,144 -58,274 -153,369z"/>
 </g>
</svg>
