<?xml version="1.0" encoding="UTF-8"?>
<!DOCTYPE svg PUBLIC "-//W3C//DTD SVG 1.1//EN" "http://www.w3.org/Graphics/SVG/1.1/DTD/svg11.dtd">
<!-- Creator: CorelDRAW X7 -->
<svg xmlns="http://www.w3.org/2000/svg" xml:space="preserve" width="210mm" height="210mm" version="1.1" style="shape-rendering:geometricPrecision; text-rendering:geometricPrecision; image-rendering:optimizeQuality; fill-rule:evenodd; clip-rule:evenodd"
viewBox="0 0 21000 21000"
 xmlns:xlink="http://www.w3.org/1999/xlink">
 <defs>
  <style type="text/css">
   <![CDATA[
    .str0 {stroke:#9A7014;stroke-width:7.62}
    .fil0 {fill:#2B2A29;fill-rule:nonzero}
    .fil1 {fill:#9A7014;fill-rule:nonzero}
   ]]>
  </style>
 </defs>
 <g id="ѓЊѓCѓ_x201e_Ѓ_x005b__x0020_1">
  <metadata id="CorelCorpID_0Corel-Layer"/>
  <path class="fil0" d="M25358 9812l-152 -3c-4,0 -7,-3 -7,-6 -8,-59 -23,-116 -46,-171 -1,-3 0,-7 3,-9l131 -79c5,-3 6,-9 4,-14l-66 -114c-2,-3 -6,-5 -9,-5 -2,0 -4,0 -5,1l-134 74c-2,1 -3,1 -4,1 -2,0 -4,-1 -5,-3 -36,-47 -78,-88 -125,-124 -3,-3 -4,-6 -2,-9l74 -134c3,-5 1,-12 -4,-15l-114 -65c-2,-1 -3,-2 -5,-2 -4,0 -7,2 -9,5l-79 131c-1,2 -4,4 -6,4 -1,0 -2,-1 -3,-1 -55,-23 -112,-38 -170,-46 -4,0 -6,-3 -6,-6l-3 -153c0,-6 -5,-11 -11,-11l-132 0c-5,0 -10,5 -10,11l-3 153c0,3 -3,6 -6,6 -58,8 -116,23 -170,46 -1,0 -2,1 -3,1 -3,0 -5,-2 -6,-4l-79 -131c-2,-3 -6,-5 -9,-5 -2,0 -4,1 -5,2l-115 65c-4,3 -6,10 -3,15l74 134c1,3 1,6 -2,9 -47,36 -89,77 -125,124 -1,2 -4,3 -6,3 -1,0 -2,0 -3,-1l-134 -74c-2,-1 -3,-1 -5,-1 -4,0 -7,2 -9,5l-66 114c-3,5 -1,11 4,14l131 79c3,2 4,6 3,9 -23,55 -39,112 -46,171 -1,3 -4,6 -7,6l-153 3c-6,0 -10,4 -10,10l0 132c0,5 4,10 10,10l153 3c3,0 6,3 7,6 7,59 23,116 46,171 1,3 0,7 -3,8l-131 79c-5,3 -7,10 -4,15l66 114c2,3 5,5 9,5 2,0 3,-1 5,-1l134 -74c1,-1 2,-1 3,-1 2,0 5,1 6,2 36,47 78,89 125,125 3,2 3,6 2,9l-74 134c-3,5 -1,12 3,14l115 66c1,1 3,2 5,2 3,0 7,-2 9,-5l79 -132c1,-2 3,-3 6,-3 1,0 2,0 2,1 55,22 112,38 171,45 3,1 6,4 6,7l3 153c0,6 5,10 10,10l132 0c6,0 11,-4 11,-10l3 -153c0,-3 2,-6 6,-7 58,-7 116,-23 170,-45 1,-1 2,-1 3,-1 2,0 4,1 6,3l79 132c2,3 5,5 9,5 2,0 3,-1 5,-2l114 -66c5,-3 7,-9 4,-14l-74 -134c-2,-3 -1,-7 2,-9 47,-36 89,-78 125,-125 1,-1 3,-2 5,-2 1,0 2,0 4,1l134 74c1,0 3,1 5,1 3,0 7,-2 9,-5l66 -115c2,-4 1,-11 -4,-14l-131 -79c-3,-1 -4,-5 -3,-8 23,-55 38,-112 46,-171 0,-3 3,-6 7,-6l153 -3c5,0 10,-5 10,-10l0 -132c0,-6 -5,-10 -11,-10zm-819 522l0 0c-246,0 -446,-199 -446,-446 0,-247 200,-447 446,-447 247,0 447,200 447,447 0,247 -200,446 -447,446z"/>
  <path class="fil1 str0" d="M20481 9505l-1866 -35c-42,-1 -77,-33 -83,-75 -92,-713 -279,-1413 -558,-2081 -17,-39 -1,-84 35,-106l1599 -964c60,-36 80,-115 46,-175l-804 -1392c-24,-40 -66,-64 -110,-64 -22,0 -44,6 -64,17l-1635 904c-13,8 -27,11 -42,11 -25,0 -50,-12 -67,-34 -438,-572 -951,-1084 -1523,-1523 -34,-26 -44,-72 -23,-110l903 -1635c35,-61 13,-138 -46,-173l-1394 -804c-19,-12 -40,-17 -63,-17 -45,0 -86,24 -110,62l-965 1600c-15,26 -44,42 -73,42 -10,0 -21,-3 -32,-7 -667,-279 -1367,-466 -2080,-558 -43,-6 -74,-41 -75,-84l-36 -1867c0,-70 -58,-125 -127,-125l-1607 0c-70,0 -128,55 -129,125l-35 1867c-1,43 -32,78 -74,84 -713,92 -1414,279 -2080,558 -12,4 -22,7 -34,7 -30,0 -59,-16 -73,-42l-965 -1600c-23,-38 -65,-62 -109,-62 -23,0 -45,5 -64,17l-1393 804c-59,35 -80,112 -48,173l905 1635c20,38 10,84 -23,110 -573,439 -1086,951 -1524,1523 -16,22 -42,34 -67,34 -15,0 -29,-3 -41,-11l-1636 -904c-20,-11 -41,-16 -63,-16 -46,0 -87,23 -111,64l-802 1391c-37,60 -16,139 44,175l1599 964c37,22 51,67 36,106 -280,668 -468,1368 -559,2081 -4,42 -41,74 -84,75l-1866 35c-70,0 -126,58 -126,127l0 1608c0,69 56,127 126,128l1866 34c43,2 80,33 84,76 91,712 279,1412 559,2080 15,39 2,85 -36,106l-1599 965c-60,35 -81,113 -44,173l802 1392c24,40 65,64 111,64 22,0 43,-5 63,-16l1636 -903c12,-8 26,-11 41,-11 25,0 51,12 67,34 439,572 952,1085 1524,1523 33,25 44,72 23,109l-905 1635c-32,61 -11,139 48,174l1393 803c19,11 41,17 64,17 44,0 86,-24 109,-62l965 -1599c14,-27 43,-42 73,-42 10,0 22,2 33,6 666,279 1366,467 2081,559 42,5 73,41 74,83l35 1868c1,69 59,125 129,125l1607 0c69,0 127,-56 127,-126l36 -1867c1,-42 32,-78 75,-83 713,-92 1414,-280 2080,-559 11,-4 21,-6 32,-6 29,0 58,15 73,42l965 1599c24,38 65,62 110,62 23,0 44,-6 63,-17l1394 -804c59,-35 81,-112 46,-173l-903 -1635c-21,-38 -11,-84 23,-109 572,-438 1085,-951 1523,-1523 17,-22 42,-34 67,-34 15,0 29,3 42,11l1635 903c20,11 42,16 64,16 44,0 86,-24 110,-64l804 -1393c34,-59 14,-137 -46,-172l-1600 -965c-36,-21 -51,-67 -34,-106 279,-667 466,-1367 558,-2080 6,-43 41,-74 83,-76l1867 -34c70,-1 126,-59 126,-128l0 -1608c0,-69 -56,-127 -127,-127zm-14836 -1862l0 0c405,-705 1306,-946 2010,-540 703,407 945,1307 539,2011 -407,704 -1307,945 -2011,539 -704,-406 -945,-1307 -538,-2010zm2010 6127l0 0c-704,406 -1604,165 -2010,-539 -407,-705 -166,-1605 538,-2011 704,-406 1604,-166 2011,539 406,704 165,1604 -539,2011zm2828 2254l0 0c-812,0 -1472,-658 -1472,-1471 0,-813 660,-1471 1472,-1471 813,0 1473,658 1473,1471 0,813 -660,1471 -1473,1471zm-1146 -5587l0 0c0,-595 482,-1077 1077,-1077 594,0 1076,482 1076,1077 0,593 -482,1076 -1076,1076 -595,0 -1077,-483 -1077,-1076zm1146 -2645l0 0c-812,0 -1472,-659 -1472,-1472 0,-813 660,-1472 1472,-1472 813,0 1473,659 1473,1472 0,813 -660,1472 -1473,1472zm4840 5439l0 0c-406,704 -1307,945 -2010,539 -704,-407 -946,-1307 -539,-2011 407,-705 1307,-945 2012,-539 702,406 944,1306 537,2011zm-537 -3578l0 0c-705,406 -1605,165 -2012,-539 -407,-704 -165,-1604 539,-2011 703,-406 1604,-165 2010,540 407,703 166,1604 -537,2010z"/>
 </g>
</svg>
