<?xml version="1.0" encoding="UTF-8"?>
<!DOCTYPE svg PUBLIC "-//W3C//DTD SVG 1.1//EN" "http://www.w3.org/Graphics/SVG/1.1/DTD/svg11.dtd">
<!-- Creator: CorelDRAW X7 -->
<svg xmlns="http://www.w3.org/2000/svg" xml:space="preserve" width="210mm" height="210mm" version="1.1" style="shape-rendering:geometricPrecision; text-rendering:geometricPrecision; image-rendering:optimizeQuality; fill-rule:evenodd; clip-rule:evenodd"
viewBox="0 0 21000 21000"
 xmlns:xlink="http://www.w3.org/1999/xlink">
 <defs>
  <style type="text/css">
   <![CDATA[
    .str0 {stroke:#D8AE52;stroke-width:7.62}
    .fil0 {fill:#D8AE52;fill-rule:nonzero}
   ]]>
  </style>
 </defs>
 <g id="ѓЊѓCѓ_x201e_Ѓ_x005b__x0020_1">
  <metadata id="CorelCorpID_0Corel-Layer"/>
  <path class="fil0 str0" d="M20646 9559l-1901 -36c-43,-1 -79,-33 -85,-76 -94,-725 -284,-1439 -568,-2120 -18,-40 -1,-86 35,-109l1630 -983c60,-35 81,-116 46,-177l-819 -1419c-25,-40 -67,-64 -112,-64 -23,0 -45,5 -65,16l-1666 922c-14,7 -28,10 -43,10 -26,0 -51,-11 -68,-34 -447,-583 -969,-1104 -1552,-1552 -35,-25 -45,-73 -24,-112l921 -1666c35,-62 13,-141 -48,-177l-1420 -818c-19,-12 -41,-18 -64,-18 -46,0 -88,25 -113,63l-983 1631c-15,26 -44,42 -74,42 -10,0 -22,-2 -33,-7 -679,-283 -1393,-475 -2120,-568 -43,-7 -75,-42 -76,-85l-37 -1904c0,-70 -59,-127 -129,-127l-1638 0c-71,0 -130,57 -131,127l-36 1904c-1,43 -32,78 -75,85 -727,93 -1441,285 -2120,568 -11,5 -22,7 -34,7 -31,0 -60,-16 -75,-42l-983 -1631c-23,-38 -66,-63 -111,-63 -23,0 -45,6 -65,18l-1419 818c-61,36 -82,115 -49,177l922 1666c20,39 10,87 -24,112 -584,448 -1107,969 -1552,1552 -17,23 -44,34 -69,34 -15,0 -29,-3 -42,-10l-1667 -922c-20,-11 -42,-16 -64,-16 -47,0 -89,24 -113,65l-818 1418c-37,61 -16,142 45,177l1630 983c37,23 52,69 36,109 -285,681 -476,1395 -569,2120 -5,43 -42,75 -86,76l-1902 36c-70,0 -127,59 -127,129l0 1639c0,70 57,130 127,130l1902 35c44,2 81,34 86,77 93,726 284,1439 569,2120 16,39 2,86 -36,108l-1630 984c-61,35 -82,114 -45,176l818 1418c24,40 66,65 113,65 22,0 44,-5 64,-16l1667 -920c13,-8 27,-11 42,-11 25,0 52,12 69,34 447,583 969,1106 1552,1553 34,25 45,72 24,111l-922 1666c-33,62 -12,141 49,176l1419 819c20,12 42,17 65,17 45,0 88,-23 111,-63l983 -1629c15,-27 44,-43 75,-43 10,0 23,3 33,7 679,284 1393,475 2121,569 43,5 74,41 75,85l36 1902c1,71 60,128 131,128l1638 0c70,0 129,-57 129,-129l37 -1901c1,-44 33,-80 76,-85 727,-94 1442,-285 2120,-569 11,-4 22,-7 33,-7 30,0 59,16 74,43l983 1629c25,40 67,63 113,63 23,0 45,-5 64,-17l1420 -819c61,-36 83,-114 48,-176l-921 -1667c-21,-39 -11,-85 24,-110 583,-447 1105,-970 1552,-1553 17,-22 42,-34 68,-34 15,0 29,3 43,11l1666 920c20,11 42,16 65,16 45,0 87,-25 112,-65l819 -1419c35,-61 14,-140 -46,-175l-1631 -984c-37,-22 -52,-69 -34,-108 284,-679 474,-1393 568,-2120 6,-43 42,-75 85,-77l1902 -35c71,0 128,-60 128,-130l0 -1639c0,-70 -57,-129 -129,-129zm-10188 6504l0 0c-3068,0 -5556,-2487 -5556,-5555 0,-3066 2488,-5555 5556,-5555 3068,0 5557,2489 5557,5555 0,3068 -2489,5555 -5557,5555z"/>
 </g>
</svg>
