<?xml version="1.0" encoding="UTF-8"?>
<!DOCTYPE svg PUBLIC "-//W3C//DTD SVG 1.1//EN" "http://www.w3.org/Graphics/SVG/1.1/DTD/svg11.dtd">
<!-- Creator: CorelDRAW X7 -->
<svg xmlns="http://www.w3.org/2000/svg" xml:space="preserve" width="210mm" height="210mm" version="1.1" style="shape-rendering:geometricPrecision; text-rendering:geometricPrecision; image-rendering:optimizeQuality; fill-rule:evenodd; clip-rule:evenodd"
viewBox="0 0 21000 21000"
 xmlns:xlink="http://www.w3.org/1999/xlink">
 <defs>
  <style type="text/css">
   <![CDATA[
    .str0 {stroke:#704D00;stroke-width:7.62}
    .fil0 {fill:#2B2A29;fill-rule:nonzero}
    .fil1 {fill:#704D00;fill-rule:nonzero}
   ]]>
  </style>
 </defs>
 <g id="ѓЊѓCѓ_x201e_Ѓ_x005b__x0020_1">
  <metadata id="CorelCorpID_0Corel-Layer"/>
  <path class="fil0" d="M24605 12645l-132 0c-5,0 -10,-5 -10,-10l-3 -153c0,-4 -3,-7 -6,-7 -59,-8 -116,-23 -171,-46 0,0 -1,0 -2,0 -3,0 -5,1 -6,3l-79 131c-2,3 -6,5 -9,5 -2,0 -4,0 -5,-1l-115 -66c-4,-3 -6,-9 -3,-14l74 -134c1,-3 1,-7 -2,-9 -47,-36 -89,-78 -125,-125 -1,-2 -4,-3 -6,-3 -1,0 -2,1 -3,1l-134 74c-2,1 -3,1 -5,1 -4,0 -7,-2 -9,-5l-66 -114c-3,-5 -1,-11 4,-14l131 -79c3,-2 4,-6 3,-9 -23,-54 -39,-112 -46,-170 -1,-4 -4,-6 -7,-6l-153 -3c-6,0 -10,-5 -10,-11l0 -131c0,-6 4,-11 10,-11l153 -3c3,0 6,-2 7,-6 7,-58 23,-116 46,-170 1,-4 0,-7 -3,-9l-131 -79c-5,-3 -7,-9 -4,-14l66 -114c2,-4 5,-6 9,-6 2,0 3,1 5,2l134 74c1,0 2,1 3,1 2,0 5,-1 6,-3 36,-47 78,-89 125,-125 3,-2 3,-6 2,-9l-74 -134c-3,-5 -1,-11 3,-14l115 -66c1,-1 3,-1 5,-1 3,0 7,2 9,5l79 131c1,2 3,3 6,3 1,0 2,0 3,0 54,-23 112,-39 170,-46 3,-1 6,-3 6,-7l3 -153c0,-6 5,-10 10,-10l132 0c6,0 11,4 11,10l3 153c0,4 2,6 6,7 58,7 115,23 170,46 1,0 2,0 3,0 2,0 5,-1 6,-3l79 -131c2,-3 5,-5 9,-5 2,0 3,0 5,1l114 66c5,3 7,9 4,14l-74 134c-2,3 -1,7 2,9 47,36 89,78 125,125 1,2 3,3 5,3 1,0 2,-1 4,-1l134 -74c1,-1 3,-2 5,-2 3,0 7,2 9,6l66 114c2,5 1,11 -4,14l-131 79c-3,2 -4,5 -3,9 23,54 38,112 46,170 0,4 3,6 7,6l152 3c6,0 11,5 11,11l0 131c0,6 -5,11 -10,11l-153 3c-4,0 -7,2 -7,6 -8,58 -23,116 -46,170 -1,3 0,7 3,9l131 79c5,3 6,9 4,14l-66 114c-2,3 -6,5 -9,5 -2,0 -4,0 -5,-1l-134 -74c-2,0 -3,-1 -4,-1 -2,0 -4,1 -5,3 -36,47 -78,89 -125,125 -3,2 -4,6 -2,9l74 134c3,5 1,11 -4,14l-114 66c-2,1 -3,1 -5,1 -4,0 -7,-2 -9,-5l-79 -131c-2,-2 -4,-3 -6,-3 -1,0 -2,0 -3,0 -54,23 -112,38 -170,46 -4,0 -6,3 -6,7l-3 153c0,5 -5,10 -11,10z"/>
  <path class="fil0" d="M25358 9812l-152 -3c-4,0 -7,-3 -7,-6 -8,-59 -23,-116 -46,-171 -1,-3 0,-7 3,-9l131 -79c5,-3 6,-9 4,-14l-66 -114c-2,-3 -6,-5 -9,-5 -2,0 -4,0 -5,1l-134 74c-2,1 -3,1 -4,1 -2,0 -4,-1 -5,-3 -36,-47 -78,-88 -125,-124 -3,-3 -4,-6 -2,-9l74 -134c3,-5 1,-12 -4,-15l-114 -65c-2,-1 -3,-2 -5,-2 -4,0 -7,2 -9,5l-79 131c-1,2 -4,4 -6,4 -1,0 -2,-1 -3,-1 -55,-23 -112,-38 -170,-46 -4,0 -6,-3 -6,-6l-3 -153c0,-6 -5,-11 -11,-11l-132 0c-5,0 -10,5 -10,11l-3 153c0,3 -3,6 -6,6 -58,8 -116,23 -170,46 -1,0 -2,1 -3,1 -3,0 -5,-2 -6,-4l-79 -131c-2,-3 -6,-5 -9,-5 -2,0 -4,1 -5,2l-115 65c-4,3 -6,10 -3,15l74 134c1,3 1,6 -2,9 -47,36 -89,77 -125,124 -1,2 -4,3 -6,3 -1,0 -2,0 -3,-1l-134 -74c-2,-1 -3,-1 -5,-1 -4,0 -7,2 -9,5l-66 114c-3,5 -1,11 4,14l131 79c3,2 4,6 3,9 -23,55 -39,112 -46,171 -1,3 -4,6 -7,6l-153 3c-6,0 -10,4 -10,10l0 132c0,5 4,10 10,10l153 3c3,0 6,3 7,6 7,59 23,116 46,171 1,3 0,7 -3,8l-131 79c-5,3 -7,10 -4,15l66 114c2,3 5,5 9,5 2,0 3,-1 5,-1l134 -74c1,-1 2,-1 3,-1 2,0 5,1 6,2 36,47 78,89 125,125 3,2 3,6 2,9l-74 134c-3,5 -1,12 3,14l115 66c1,1 3,2 5,2 3,0 7,-2 9,-5l79 -132c1,-2 3,-3 6,-3 1,0 2,0 2,1 55,22 112,38 171,45 3,1 6,4 6,7l3 153c0,6 5,10 10,10l132 0c6,0 11,-4 11,-10l3 -153c0,-3 2,-6 6,-7 58,-7 116,-23 170,-45 1,-1 2,-1 3,-1 2,0 4,1 6,3l79 132c2,3 5,5 9,5 2,0 3,-1 5,-2l114 -66c5,-3 7,-9 4,-14l-74 -134c-2,-3 -1,-7 2,-9 47,-36 89,-78 125,-125 1,-1 3,-2 5,-2 1,0 2,0 4,1l134 74c1,0 3,1 5,1 3,0 7,-2 9,-5l66 -115c2,-4 1,-11 -4,-14l-131 -79c-3,-1 -4,-5 -3,-8 23,-55 38,-112 46,-171 0,-3 3,-6 7,-6l153 -3c5,0 10,-5 10,-10l0 -132c0,-6 -5,-10 -11,-10zm-819 522l0 0c-246,0 -446,-199 -446,-446 0,-247 200,-447 446,-447 247,0 447,200 447,447 0,247 -200,446 -447,446z"/>
  <path class="fil0" d="M25358 7972l-152 -3c-4,0 -7,-2 -7,-6 -8,-58 -23,-116 -46,-170 -1,-4 0,-7 3,-9l131 -79c5,-3 6,-9 4,-14l-66 -114c-2,-4 -6,-6 -9,-6 -2,0 -4,1 -5,2l-134 74c-2,0 -3,1 -4,1 -2,0 -4,-1 -5,-3 -36,-47 -78,-89 -125,-125 -3,-2 -4,-6 -2,-9l74 -134c3,-5 1,-11 -4,-14l-114 -66c-2,-1 -3,-1 -5,-1 -4,0 -7,2 -9,5l-79 131c-1,2 -4,3 -6,3 -1,0 -2,0 -3,0 -55,-23 -112,-39 -170,-46 -4,-1 -6,-3 -6,-7l-3 -153c0,-6 -5,-10 -11,-10l-132 0c-5,0 -10,4 -10,10l-3 153c0,4 -3,6 -6,7 -58,7 -116,23 -170,46 -1,0 -2,0 -3,0 -3,0 -5,-1 -6,-3l-79 -131c-2,-3 -6,-5 -9,-5 -2,0 -4,0 -5,1l-115 66c-4,3 -6,9 -3,14l74 134c1,3 1,7 -2,9 -47,36 -89,78 -125,125 -1,2 -4,3 -6,3 -1,0 -2,-1 -3,-1l-134 -74c-2,-1 -3,-2 -5,-2 -4,0 -7,2 -9,6l-66 114c-3,5 -1,11 4,14l131 79c3,2 4,5 3,9 -23,54 -39,112 -46,170 -1,4 -4,6 -7,6l-153 3c-6,0 -10,5 -10,11l0 131c0,6 4,11 10,11l153 3c3,0 6,2 7,6 7,58 23,115 46,170 1,3 0,7 -3,9l-131 79c-5,3 -7,9 -4,14l66 114c2,3 5,5 9,5 2,0 3,0 5,-1l134 -74c1,-1 2,-1 3,-1 2,0 5,1 6,3 36,47 78,89 125,125 3,2 3,6 2,9l-74 134c-3,5 -1,11 3,14l115 66c1,1 3,1 5,1 3,0 7,-2 9,-5l79 -131c1,-2 3,-3 6,-3 1,0 2,0 2,0 55,23 112,38 171,46 3,0 6,3 6,7l3 153c0,5 5,10 10,10l132 0c6,0 11,-5 11,-10l3 -153c0,-4 2,-7 6,-7 58,-8 116,-23 170,-46 1,0 2,0 3,0 2,0 4,1 6,3l79 131c2,3 5,5 9,5 2,0 3,0 5,-1l114 -66c5,-3 7,-9 4,-14l-74 -134c-2,-3 -1,-7 2,-9 47,-36 89,-78 125,-125 1,-2 3,-3 5,-3 1,0 2,0 4,1l134 74c1,1 3,1 5,1 3,0 7,-2 9,-5l66 -114c2,-5 1,-11 -4,-14l-131 -79c-3,-2 -4,-6 -3,-9 23,-54 38,-112 46,-170 0,-4 3,-6 7,-6l153 -3c5,0 10,-5 10,-11l0 -131c0,-6 -5,-11 -11,-11zm-1215 -153l0 0c33,-57 107,-77 164,-44 58,34 78,107 45,165 -34,58 -107,78 -165,44 -58,-33 -78,-107 -44,-165zm164 503l0 0c-57,33 -131,13 -164,-45 -34,-57 -14,-131 44,-164 58,-34 131,-14 165,44 33,57 13,131 -45,165zm232 184l0 0c-66,0 -120,-54 -120,-120 0,-67 54,-121 120,-121 67,0 121,54 121,121 0,66 -54,120 -121,120zm-94 -458l0 0c0,-48 40,-88 89,-88 48,0 88,40 88,88 0,49 -40,89 -88,89 -49,0 -89,-40 -89,-89zm94 -216l0 0c-66,0 -120,-54 -120,-121 0,-66 54,-120 120,-120 67,0 121,54 121,120 0,67 -54,121 -121,121zm397 445l0 0c-33,58 -107,78 -165,45 -58,-34 -77,-108 -44,-165 33,-58 107,-78 165,-44 57,33 77,107 44,164zm-44 -293l0 0c-58,34 -132,14 -165,-44 -33,-58 -14,-131 44,-165 58,-33 132,-13 165,44 33,58 13,132 -44,165z"/>
  <path class="fil1 str0" d="M20648 9518l-1908 -35c-43,-2 -79,-35 -86,-77 -93,-729 -284,-1445 -570,-2128 -18,-40 -1,-87 36,-109l1635 -986c61,-37 82,-117 47,-178l-822 -1424c-25,-41 -67,-65 -112,-65 -24,0 -46,6 -66,16l-1672 925c-14,8 -27,11 -43,11 -26,0 -52,-11 -68,-34 -449,-585 -973,-1109 -1558,-1558 -35,-26 -45,-74 -24,-112l924 -1672c36,-63 13,-142 -48,-178l-1425 -822c-19,-11 -41,-17 -64,-17 -46,0 -89,24 -113,63l-987 1637c-15,26 -44,42 -75,42 -10,0 -21,-3 -32,-7 -682,-284 -1399,-477 -2128,-570 -43,-6 -76,-43 -76,-86l-37 -1910c0,-71 -60,-128 -130,-128l-1644 0c-71,0 -131,57 -131,128l-36 1910c-1,43 -33,80 -76,86 -729,93 -1446,286 -2127,570 -12,4 -23,7 -35,7 -30,0 -60,-16 -75,-42l-986 -1637c-24,-39 -67,-63 -112,-63 -23,0 -45,6 -65,17l-1424 822c-62,36 -83,115 -50,178l926 1672c20,38 10,86 -24,112 -586,449 -1111,973 -1558,1558 -17,23 -44,34 -69,34 -15,0 -30,-3 -42,-11l-1674 -925c-19,-10 -41,-16 -64,-16 -46,0 -89,24 -113,66l-821 1423c-37,61 -16,141 45,178l1636 986c38,22 52,69 37,109 -286,683 -478,1399 -572,2128 -4,42 -41,75 -86,77l-1909 35c-70,1 -128,59 -128,131l0 1644c0,70 58,130 128,131l1909 35c45,2 82,33 86,77 94,728 286,1445 572,2127 15,40 2,87 -37,109l-1636 986c-61,37 -82,116 -45,178l821 1423c24,41 67,65 113,65 23,0 45,-5 64,-15l1674 -925c12,-7 27,-10 42,-10 25,0 52,11 69,34 448,585 973,1109 1558,1558 34,26 45,73 24,112l-926 1672c-33,62 -12,141 50,177l1424 822c20,11 42,17 65,17 45,0 88,-24 112,-63l986 -1636c15,-27 45,-43 75,-43 11,0 23,3 34,7 681,285 1397,478 2128,571 43,5 75,42 76,85l36 1910c0,72 60,128 131,128l1644 0c70,0 130,-56 130,-129l37 -1909c0,-43 33,-80 76,-85 729,-93 1447,-286 2128,-571 11,-4 21,-7 32,-7 31,0 59,16 75,43l987 1636c24,39 67,63 113,63 23,0 45,-6 64,-17l1425 -822c61,-37 84,-115 48,-177l-924 -1673c-21,-39 -11,-85 24,-111 585,-449 1109,-973 1558,-1558 16,-23 42,-34 68,-34 16,0 29,3 43,10l1672 925c20,10 42,15 66,15 45,0 87,-24 112,-65l822 -1424c35,-61 14,-140 -47,-177l-1636 -986c-37,-22 -53,-69 -35,-109 286,-682 477,-1398 570,-2127 7,-44 43,-75 86,-77l1909 -35c71,-1 128,-61 128,-131l0 -1644c0,-72 -57,-130 -129,-131zm-9601 -5545l0 0c1551,148 2941,838 3983,1879 588,589 1066,1288 1394,2066 -29,138 -127,252 -264,291l-4579 1302c-88,25 -201,22 -306,-6 -135,-79 -229,-291 -234,-440l-178 -4757c-3,-138 68,-261 184,-335zm120 6498l0 0c0,410 -333,743 -744,743 -410,0 -742,-333 -742,-743 0,-411 332,-743 742,-743 411,0 744,332 744,743zm-5351 -4619l0 0c1057,-1055 2471,-1750 4048,-1884 120,71 198,197 192,340l-175 4757c-5,91 -43,200 -101,289 -119,103 -349,129 -492,88l-4579 -1302c-134,-38 -227,-148 -262,-279 329,-755 795,-1435 1369,-2009zm292 9488l0 0c-99,-89 -197,-180 -292,-275 -1179,-1180 -1907,-2806 -1907,-4607 0,-506 58,-998 166,-1471 106,-93 251,-129 384,-80l4470 1638c87,31 176,101 245,185 62,144 13,372 -69,495l-2654 3952c-77,114 -208,171 -343,163zm7623 732l0 0c-970,573 -2100,902 -3308,903 -1230,-1 -2380,-341 -3363,-935 -53,-127 -43,-276 46,-388l2937 -3746c58,-71 151,-136 253,-174 156,-15 358,100 449,218l2939 3743c85,110 97,253 47,379zm1299 -1007l0 0c-108,110 -222,217 -339,317 -139,12 -276,-45 -355,-162l-2654 -3953c-51,-76 -83,-185 -87,-293 33,-153 206,-309 344,-361l4471 -1637c130,-47 271,-15 375,72 99,455 154,927 154,1410 -1,1801 -729,3427 -1909,4607z"/>
 </g>
</svg>
