<?xml version="1.0" encoding="UTF-8"?>
<!DOCTYPE svg PUBLIC "-//W3C//DTD SVG 1.1//EN" "http://www.w3.org/Graphics/SVG/1.1/DTD/svg11.dtd">
<!-- Creator: CorelDRAW X7 -->
<svg xmlns="http://www.w3.org/2000/svg" xml:space="preserve" width="88.3698mm" height="87.3112mm" version="1.1" style="shape-rendering:geometricPrecision; text-rendering:geometricPrecision; image-rendering:optimizeQuality; fill-rule:evenodd; clip-rule:evenodd"
viewBox="0 0 8837 8731"
 xmlns:xlink="http://www.w3.org/1999/xlink">
 <defs>
  <style type="text/css">
   <![CDATA[
    .str6 {stroke:black;stroke-width:20;stroke-opacity:0.101961}
    .str3 {stroke:black;stroke-width:105.83}
    .str4 {stroke:#432982;stroke-width:105.83}
    .str0 {stroke:black;stroke-width:20}
    .str1 {stroke:#432982;stroke-width:20}
    .str5 {stroke:#C20000;stroke-width:20}
    .str2 {stroke:white;stroke-width:20}
    .fil0 {fill:none}
    .fil4 {fill:none}
    .fil1 {fill:#432982}
    .fil3 {fill:#C20000}
    .fil2 {fill:white}
   ]]>
  </style>
 </defs>
 <g id="Слой_x0020_1">
  <metadata id="CorelCorpID_0Corel-Layer"/>
  <circle class="fil0 str0" cx="4433" cy="4329" r="4194"/>
  <path class="fil1 str1" d="M5267 3702c-75,64 -159,5 -281,49 -44,16 -81,35 -116,63 -29,22 -64,59 -111,61 -17,-21 -23,-22 -8,-46 12,-22 90,-88 112,-105 70,-55 142,-75 213,-97 -28,-26 -123,-5 -168,10 -65,22 -132,87 -182,133 -29,28 -3,35 -14,71 -4,14 -11,18 -15,32l-23 106c0,47 16,144 40,183 19,31 14,34 52,50 53,22 223,69 278,78 14,2 23,2 39,4 26,4 8,6 34,6 -21,-41 -19,-8 -37,-89 -18,-80 -42,-179 -9,-263 18,-49 -6,-6 28,-72 35,-67 16,-25 40,-60 15,-22 10,-52 40,-62 50,-17 33,37 32,57 -26,6 -26,28 -34,50 -30,77 -33,129 -28,215 4,61 2,98 42,147 56,72 27,45 104,87 96,52 196,-24 295,-52 65,-19 278,-122 356,-159l143 -63c21,-10 45,-26 67,-37 36,-18 18,-18 62,-35 76,-28 69,-73 96,-135l19 -66c3,-37 12,-76 7,-115 -11,-93 -44,-113 -81,-173 -8,-14 -9,-19 -18,-32 -40,-55 -100,-97 -157,-128 -23,-12 -35,-21 -58,-26 -131,-30 -92,-13 -174,-25 -23,-4 -19,-2 -44,-1 -35,2 -63,-13 -100,-11 -24,2 -23,-1 -41,0 -162,8 -438,32 -586,96 -26,11 -42,3 -79,18 -43,17 -130,38 -178,49 -120,29 -260,57 -369,42 -9,-2 -8,-2 -14,-3 -1,0 -18,-3 -19,-3 -47,-10 -162,-149 -190,-197 -69,-119 -107,-259 -105,-397 1,-49 8,-110 -1,-159 -28,21 -30,61 -79,59 -9,-28 23,-64 35,-131 2,-15 4,-23 6,-34 5,-23 6,-19 10,-35l29 -299c-4,-32 -14,-68 -18,-99 -9,-92 -64,-257 -117,-318 -52,-60 -114,-116 -185,-151 -5,-2 -12,-5 -16,-8 -48,-27 -39,-15 -83,-27 -26,-7 0,-5 -32,-9 -69,-8 -346,-36 -263,110 38,66 153,343 118,411 -19,40 -22,-2 -14,77 3,30 4,53 3,80 0,11 -1,25 -2,36 -3,22 -2,16 0,42l-6 162c-1,54 9,110 17,170 4,31 -3,43 -1,78 3,56 5,142 -9,197 -1,1 -1,3 -2,4 -33,131 -32,161 -88,305l-116 249c-25,88 -82,164 -115,250 -9,23 -17,43 -23,65l-17 75c-10,28 -22,49 -32,95l-15 157c2,25 2,18 0,40 -5,52 5,112 -4,158 -8,43 1,38 6,82 4,27 -2,23 -1,42 0,16 6,32 8,48 7,58 12,117 26,177 14,62 42,119 33,175 -51,12 -42,-36 -58,-80 -61,-159 -81,-356 -95,-384 -38,-1 -123,39 -160,55 -39,16 -178,45 -229,46 -81,2 -243,64 -319,37 -12,-50 21,-47 67,-56 31,-7 68,-20 103,-30l307 -89c96,-43 117,-38 205,-108 9,-7 24,-17 32,-26 -10,-61 -7,-145 -1,-208 5,-54 32,-125 42,-180 10,-50 20,-97 41,-144l38 -82c10,-19 11,-37 21,-56 35,-66 45,-94 69,-163l35 -78c14,-40 50,-97 59,-137 10,-41 1,-19 25,-53 27,-39 26,-76 35,-116 4,-18 6,-45 13,-61l12 -63c-1,-35 6,-38 7,-62 1,-13 -2,-21 -1,-33 3,-47 5,-59 -1,-108 -4,-25 2,-44 -1,-67 -5,-37 -9,-38 -9,-75 1,-48 -19,-88 -12,-147 7,-67 24,-21 27,-196 1,-47 18,-88 -5,-131 -16,-30 -15,-36 -23,-73 -12,-56 -31,-91 -45,-146 -20,-78 -9,-75 -6,-140 3,-43 -44,-71 -4,-130 12,-18 21,-36 35,-46 60,-42 129,-29 201,-37 23,-2 53,-2 72,-2 33,1 35,8 64,14l116 32c56,16 110,51 148,94 12,14 28,24 44,38 33,27 52,53 80,92 28,37 38,82 60,125 30,60 64,219 66,293 0,25 0,45 -4,67 -3,21 -2,45 -7,70 -8,39 -20,84 -26,121 -3,19 19,111 18,150 -5,138 30,395 81,520 11,27 22,27 33,54 18,43 55,102 88,134 24,24 41,47 78,43 181,-21 146,-25 301,-62 47,-12 94,-34 139,-47 152,-46 305,-81 463,-108 22,-3 43,-1 68,-2 96,-6 91,-22 219,-15 64,4 136,1 201,9 26,4 37,4 64,6 23,2 37,10 61,12 31,4 37,-6 65,6 65,25 156,56 212,100 32,26 66,49 83,86 28,59 40,41 58,124 17,77 35,144 14,219 -9,31 -4,28 -9,63 -10,65 21,50 59,104 29,39 55,51 70,106 13,47 39,90 51,139 34,129 18,130 18,218 1,90 -16,99 -51,174l-29 51c-16,23 -27,14 -44,45 5,21 26,49 36,74l62 178c5,31 -7,50 -10,82 -2,15 -2,26 -5,39l-27 68c-5,10 -11,23 -17,36 -24,51 -55,84 -91,123 12,61 84,82 35,282 -8,36 2,33 -22,61 -22,25 -13,29 -31,54 -51,74 -146,108 -173,144 -34,44 -113,59 -177,75 -41,10 -82,29 -156,48l-330 78c-48,10 -200,8 -230,24l-122 72c-15,6 -27,6 -40,12 -23,11 -2,5 -26,18 -58,34 -221,57 -271,83l-184 56c-36,9 -39,-1 -76,5 -27,5 -60,16 -86,18 -40,4 -94,-3 -142,3l-221 -1c-41,-12 -61,-13 -101,-13 -14,0 -25,1 -40,1 -22,1 -44,-4 -66,-11 -24,-7 -27,-14 -58,-15 -35,-2 -37,-6 -63,-17 -44,-20 -87,-12 -126,-35l-38 -18c-1,0 -3,0 -4,-1l-129 -62c-53,-19 -47,-48 -116,-40 -28,3 -48,0 -72,-5 -47,-10 -91,-7 -141,-8l-150 3c-62,8 -97,7 -163,21 -118,25 -223,50 -334,87 -87,29 -217,95 -298,104 -16,-13 -3,-4 -18,-13 -9,-62 95,-74 140,-103 34,-23 214,-94 258,-105 33,-7 45,-10 75,-22 77,-31 218,-50 299,-65 108,-21 217,-6 277,-19 -11,-16 -21,-20 -34,-33 -62,-67 -129,-157 -161,-242 -15,-39 -16,-118 -24,-129 -21,-13 -61,10 -87,5 -30,-5 -12,7 -23,-14 22,-25 131,-61 175,-14 -5,78 -19,61 40,133 35,41 95,133 130,164l210 162c41,22 140,81 178,94 24,9 37,8 60,22 42,25 82,31 131,44 36,10 23,12 67,18 22,3 43,3 67,11 69,20 149,12 223,22l315 -10c99,-1 404,-97 522,-131 31,-9 12,-5 32,-15 20,-11 25,-9 45,-16 17,-6 18,-8 29,-17 15,-9 22,-12 35,-19 -11,-13 -10,-13 -32,-21 -13,-4 -26,-7 -40,-12 -29,-10 -125,-52 -145,-71 -66,-62 -81,-53 -149,-143 -26,-35 -60,-57 -84,-94l-148 -219c-19,-31 -29,-53 -43,-86l-39 -90c-25,-63 -58,-105 -85,-166 -15,-33 -24,-60 -39,-92 -12,-27 -35,-73 -21,-103 34,-4 19,-5 39,26 74,113 27,84 158,255 10,14 17,30 30,33 4,-14 1,-15 2,-33 3,-64 11,-119 43,-174l32 -37c-7,-22 -36,-46 -53,-65l-55 -72c-67,-90 -83,-364 -4,-473 52,-72 54,-78 7,-146 -52,-75 -61,-175 -63,-257 -2,-40 25,-102 44,-135 84,-148 248,-281 437,-283 28,0 114,21 140,38l45 20c2,1 3,1 5,2 23,7 34,-8 81,-35 78,-44 160,-67 244,-99 53,-21 326,-101 371,-89 6,49 -91,62 -162,90l-199 83c-25,15 -58,18 -84,28 -25,10 -19,13 -37,23 -27,16 -63,26 -90,44 -26,17 -7,9 -33,26 -48,31 -43,11 -72,61z"/>
  <path class="fil2 str2" d="M5199 4950c-38,-87 -36,-41 -55,-126 -11,-51 -13,-95 6,-130 59,-109 36,-62 95,-141 8,-11 2,0 8,-11 0,-2 1,-3 1,-5 10,-23 8,-27 2,-45 -43,-5 -64,27 -112,70 -32,29 -61,71 -72,109 -13,44 -33,81 -26,136 4,37 6,91 21,124 5,12 15,26 20,46 -33,0 -141,-44 -190,-58 -124,-35 -117,-32 -165,-107 -32,-51 -41,-98 -48,-160 -15,-131 -5,-156 46,-281 6,-15 15,-43 41,-38 36,6 -9,28 84,50 101,23 135,11 204,36 84,29 237,60 321,28l487 -225c22,-13 41,-27 67,-37 65,-26 21,-17 63,-33l70 -34c43,-21 86,-43 129,-68 60,-33 78,-38 116,-79 18,-18 35,-29 57,-13 27,20 125,123 138,157 62,157 35,276 -21,398 -6,14 -7,21 -14,33 -24,44 -73,63 -116,80 -64,25 -49,12 -103,45 -9,5 -31,13 -40,17l-220 86c-39,16 -32,8 -77,31 -44,23 -105,39 -152,58 -51,21 -101,36 -152,56 -71,28 -135,61 -218,90 -40,14 -52,18 -83,6 -34,-13 -51,-33 -79,-50 -20,-13 -16,-6 -33,-15z"/>
  <path class="fil2 str2" d="M6350 4737c40,8 30,9 72,37l56 70c47,78 31,202 -15,275 -17,27 -15,51 -41,74 -37,33 -219,88 -284,118 -90,43 -142,62 -235,93 -26,9 -18,13 -47,22 -70,22 -350,142 -406,105 -13,-8 -17,-20 -29,-31 -6,-7 -51,-28 -84,-58l-17 -16c-31,-23 -24,-25 -39,-91 -21,-84 -38,-110 28,-178 62,-64 49,-39 127,-69 17,-7 24,-14 48,-21 80,-24 66,-34 204,-68 58,-14 49,-31 87,-44 43,-15 54,-10 97,-31 35,-18 65,-25 98,-40 35,-15 49,-23 89,-38 25,-9 18,-13 41,-20 21,-7 36,-6 59,-17 45,-19 152,-80 191,-72z"/>
  <path class="fil2 str2" d="M5385 5915c-1,-65 -5,-30 -28,-71 -4,-7 -5,-11 -9,-19 -16,-28 -23,-24 -26,-66 -4,-51 7,-112 28,-156 69,-20 114,0 237,-28l239 -73c76,-28 90,-25 163,-59 21,-9 41,-11 109,-42 20,-9 40,-13 58,-21l111 -45c16,13 35,30 49,43 79,71 48,227 -21,276 -50,36 -63,72 -73,80 -13,11 -20,7 -38,18 -35,23 -15,25 -71,38 -124,31 -247,72 -378,93 -29,5 -53,7 -87,15 -43,11 -50,2 -88,9 -93,18 -50,-2 -175,8z"/>
  <path class="fil2 str2" d="M5267 3702c-10,44 -39,8 -12,50l-30 7 1 44c-11,-1 -12,5 -15,8 1,-20 18,-74 -32,-57 -30,10 -25,40 -40,62 -24,35 -5,-7 -40,60 -34,66 -10,23 -28,72 -33,84 -9,183 9,263 18,81 16,48 37,89 -26,0 -8,-2 -34,-6 -16,-2 -25,-2 -39,-4 -55,-9 -225,-56 -278,-78 -38,-16 -33,-19 -52,-50 -24,-39 -40,-136 -40,-183l23 -106c4,-14 11,-18 15,-32 11,-36 -15,-43 14,-71 50,-46 117,-111 182,-133 45,-15 140,-36 168,-10 -71,22 -143,42 -213,97 -22,17 -100,83 -112,105 -15,24 -9,25 8,46 47,-2 82,-39 111,-61 35,-28 72,-47 116,-63 122,-44 206,15 281,-49z"/>
  <path class="fil1 str2" d="M4115 5094c-35,-54 -24,-238 -12,-316 8,-51 21,-25 15,-98 -3,-41 20,-43 24,-83 8,-80 22,-114 49,-193 2,-6 3,-8 4,-13 18,-53 42,-74 68,-136 16,-38 86,-177 89,-209 1,-15 3,-36 4,-50 4,-40 7,-59 5,-104 -6,-104 7,-35 -12,-168 -4,-24 1,-27 -2,-52 -4,-40 -17,-83 26,-89 76,74 93,421 54,585l-38 135c-10,34 -26,55 -37,82 -20,48 2,15 -35,84 -13,23 -25,54 -40,81 -15,27 -23,53 -40,81 -26,44 -59,153 -72,203 -2,7 -2,7 -3,15 -14,72 -26,116 -19,198 3,37 9,38 -28,47z"/>
  <path class="fil2 str2" d="M5156 5102c1,7 -33,130 -26,190 3,31 85,169 91,190 -37,4 -135,-38 -175,-56 -23,-10 -38,-9 -61,-19 -28,-12 -26,-20 -47,-35 -108,-80 -125,-51 -137,-211 -4,-48 4,-67 46,-109 26,-25 108,-28 136,-16 9,4 16,8 28,14l8 4c48,23 105,31 137,48z"/>
  <path class="fil2 str2" d="M5229 5576c-2,39 -12,31 -13,73 -6,156 84,182 100,250 -48,-4 -75,-35 -120,-68 -113,-81 -156,-78 -206,-185 -22,-45 -54,-96 -57,-162 28,-14 96,22 149,40 12,4 14,8 32,14l115 38z"/>
  <polygon class="fil2 str3" points="3594,4152 4092,6053 1140,6818 642,4918 "/>
  <polygon class="fil2 str4" points="1321,4498 2713,4135 3298,6378 1905,6741 "/>
  <path class="fil1 str4" d="M1302 7119c-599,-672 -986,-1539 -1052,-2494l1752 -457 676 2592 -1376 359z"/>
  <path class="fil3 str5" d="M3170 4451l352 42 12 47 -288 214 -12 -49 88 -62 -35 -137 -106 -10 -11 -45zm155 59l28 111 80 -57c25,-17 45,-30 61,-40 -22,1 -44,0 -66,-2l-103 -12z"/>
  <path class="fil3 str5" d="M3484 5796c21,-13 39,-31 56,-51 16,-20 40,-57 71,-111 23,-40 38,-65 45,-74 10,-16 20,-28 31,-36 10,-8 20,-14 32,-17 22,-5 42,0 62,15 19,16 33,38 40,67 7,29 6,56 -4,81 -7,19 -20,36 -40,52 24,3 44,11 59,24 21,18 36,41 43,70 7,28 6,54 -4,78 -9,23 -24,37 -44,42 -17,5 -37,4 -59,-3 -22,-7 -53,-23 -92,-48 -51,-33 -92,-56 -123,-69 -24,-11 -49,-17 -73,-20z"/>
  <path class="fil1 str1" d="M2898 6195c42,0 76,32 76,71 0,39 -34,71 -76,71 -42,0 -76,-32 -76,-71 0,-39 34,-71 76,-71z"/>
  <line class="fil4 str6" x1="2508" y1="6105" x2="868" y2= "6538" />
  <path class="fil0 str4" d="M4418 145c2316,0 4194,1878 4194,4194 0,2316 -1878,4193 -4194,4193 -2316,0 -4193,-1877 -4193,-4193 0,-2316 1877,-4194 4193,-4194z"/>
 </g>
</svg>
