<?xml version="1.0" encoding="UTF-8"?>
<!DOCTYPE svg PUBLIC "-//W3C//DTD SVG 1.1//EN" "http://www.w3.org/Graphics/SVG/1.1/DTD/svg11.dtd">
<!-- Creator: CorelDRAW X7 -->
<svg xmlns="http://www.w3.org/2000/svg" xml:space="preserve" width="317.5mm" height="370.417mm" version="1.1" style="shape-rendering:geometricPrecision; text-rendering:geometricPrecision; image-rendering:optimizeQuality; fill-rule:evenodd; clip-rule:evenodd"
viewBox="0 0 31750 37042"
 xmlns:xlink="http://www.w3.org/1999/xlink">
 <defs>
  <style type="text/css">
   <![CDATA[
    .str0 {stroke:#432982;stroke-width:26.45}
    .str1 {stroke:#FEFEFE;stroke-width:35.28}
    .fil0 {fill:#432982}
    .fil2 {fill:white}
    .fil1 {fill:white}
    .fil6 {fill:#FEFEFE;fill-rule:nonzero}
    .fil4 {fill:#FFF8E9;fill-rule:nonzero}
    .fil3 {fill:#D1C2A3;fill-rule:nonzero}
    .fil5 {fill:#3F3E47;fill-rule:nonzero}
   ]]>
  </style>
 </defs>
 <g id="Слой_x0020_1">
  <metadata id="CorelCorpID_0Corel-Layer"/>
  <path class="fil0 str0" d="M7184 1588l17249 0c1477,0 2686,1208 2686,2685l0 27887c0,1477 -1209,2686 -2686,2686l-17249 0c-1477,0 -2685,-1209 -2685,-2686l0 -27887c0,-1477 1208,-2685 2685,-2685z"/>
  <polygon class="fil1" points="6203,5461 5842,5151 7133,3860 7494,4170 8114,3550 7907,3343 8992,3085 8889,4118 8527,3808 7546,4841 7133,4480 "/>
  <polygon class="fil2" points="25563,31275 25922,31580 24641,32851 24283,32546 23668,33156 23873,33359 22797,33613 22900,32597 23258,32902 24231,31885 24641,32241 "/>
  <g id="_650003347072">
   <path class="fil3" d="M10708 8357c74,22 10321,0 10321,0 -644,1356 -1408,2507 -5212,4102 0,0 -2560,-656 -5109,-4102z"/>
   <g>
    <path class="fil4" d="M8376 10831l2332 -2474c0,0 1907,2713 5109,4102 -28,61 -1877,3745 -1877,3745l1105 2167 -1697 6976 -4972 -14516z"/>
   </g>
   <g>
    <path class="fil4" d="M23352 10831l-2332 -2474c0,0 -2238,2775 -5205,4103 -58,-12 1974,3744 1974,3744l-1106 2167 1697 6976 4972 -14516z"/>
   </g>
   <path class="fil3" d="M15817 12459c-93,203 -189,405 -286,606 -96,202 -196,401 -295,602 -98,201 -200,399 -301,598 -100,200 -202,399 -305,596l-310 594 -314 616 -283 582 -314 579 -144 243 -195 -226 -519 -643c-172,-215 -345,-430 -516,-646 -171,-216 -341,-433 -510,-650l-254 -326 -252 -327 -501 -657c-83,-109 -164,-221 -247,-331l-247 -331c-82,-111 -162,-223 -244,-334l-243 -334c-160,-224 -1004,-1604 -1160,-1831 191,201 1061,1561 1246,1766l276 309c92,104 185,206 275,311l272 312c90,104 182,207 271,313l537 629 266 317 265 317c177,212 353,424 527,638 175,213 348,427 522,641l517 644 -297 25 330 -583 334 -582 338 -579 342 -577c114,-192 230,-384 346,-575 117,-191 231,-383 351,-572 118,-190 235,-381 357,-569 120,-189 241,-378 365,-565z"/>
   <path class="fil3" d="M15816 12459c125,188 246,377 367,568 121,189 239,381 358,572 119,191 234,384 351,576 117,192 234,384 347,578l344 580 339 582 335 584 331 587 -297 -25 518 -644c173,-214 346,-429 522,-641 174,-214 350,-426 526,-638l265 -317 267 -317 536 -629c89,-106 181,-209 272,-313l272 -312c90,-105 183,-207 274,-311l276 -309c186,-205 1158,-1590 1349,-1791 -156,227 -1103,1632 -1263,1856l-243 334c-81,111 -161,223 -244,333l-247 332c-82,110 -163,221 -247,331l-500 657 -253 327 -253 326c-170,217 -340,434 -511,650 -171,216 -343,431 -515,646l-520 643 -170 210 -127 -235 -323 -591 -319 -593 -315 -594 -310 -598c-104,-198 -206,-398 -307,-599 -101,-200 -204,-399 -302,-601 -99,-202 -199,-402 -296,-605 -97,-202 -193,-405 -287,-609z"/>
   <path class="fil5" d="M7862 11164l-217 737 -220 737c-146,492 -298,982 -447,1472 -148,491 -302,980 -453,1470 -151,490 -303,980 -458,1468l-55 -146 1097 660c366,219 730,442 1095,664l1094 665c365,221 729,443 1092,667l208 129 -196 146 -1197 900c-400,300 -798,601 -1200,898l36 -239 987 1327 494 664 491 665 981 1332c328,444 651,890 976,1336 324,446 651,890 972,1338l967 1341 961 1346 477 675 474 678 -516 -648 -514 -650 -1021 -1303 -1014 -1309c-339,-435 -673,-875 -1009,-1312 -335,-438 -673,-875 -1005,-1315l-1001 -1318 -499 -659 -497 -662 -994 -1323 -102 -135 138 -103c398,-301 800,-598 1201,-896l1202 -894 13 275c-363,-224 -725,-450 -1086,-678l-1083 -680c-361,-227 -723,-452 -1083,-682l-1080 -685 -86 -54 31 -92c165,-486 333,-970 502,-1455 169,-484 335,-970 507,-1453 171,-484 340,-968 514,-1451l259 -725 264 -723z"/>
   <path class="fil5" d="M24115 11177l264 724 260 724c174,483 343,967 514,1451 172,484 338,969 507,1453l253 727 249 728 32 93 -87 55 -1080 685 -1083 682 -1084 680c-361,227 -724,452 -1086,677l22 -269 1048 895c349,298 700,595 1047,895l121 106 -95 126 -998 1320 -498 660 -501 659 -1005 1315c-333,439 -672,875 -1008,1312 -338,436 -673,875 -1013,1309l-1017 1306 -1025 1301 -515 648 -518 647 476 -677 479 -673 964 -1344 971 -1339c322,-447 650,-890 975,-1335 327,-444 651,-890 980,-1333l984 -1329 493 -664 496 -662 990 -1325 27 232c-351,-297 -697,-598 -1045,-898l-1044 -899 -173 -149 195 -120c363,-223 726,-447 1091,-668l1094 -665 1095 -664 1097 -660 -55 148 -231 -733 -228 -735c-151,-490 -305,-979 -453,-1470 -148,-491 -300,-980 -446,-1472l-220 -737 -216 -738z"/>
  </g>
  <g id="_650003345056">
   <polygon class="fil6 str1" points="6688,6646 6271,6646 6271,5895 6688,5895 "/>
   <polygon class="fil6 str1" points="7392,6646 6956,6646 6956,5497 7392,5497 "/>
   <polygon class="fil6 str1" points="8151,6646 7688,6646 7688,5099 8151,5099 "/>
   <polygon class="fil6 str1" points="8837,6646 8392,6646 8392,4710 8837,4710 "/>
  </g>
  <g id="_650003343456">
   <polygon class="fil6 str1" points="25090,30021 25502,30021 25502,30743 25090,30743 "/>
   <polygon class="fil6 str1" points="24394,30021 24825,30021 24825,31126 24394,31126 "/>
   <polygon class="fil6 str1" points="23643,30021 24101,30021 24101,31509 23643,31509 "/>
   <polygon class="fil6 str1" points="22966,30021 23405,30021 23405,31883 22966,31883 "/>
  </g>
 </g>
</svg>
