<?xml version="1.0" encoding="UTF-8"?>
<!DOCTYPE svg PUBLIC "-//W3C//DTD SVG 1.1//EN" "http://www.w3.org/Graphics/SVG/1.1/DTD/svg11.dtd">
<!-- Creator: CorelDRAW X7 -->
<svg xmlns="http://www.w3.org/2000/svg" xml:space="preserve" width="96.8368mm" height="86.7822mm" version="1.1" style="shape-rendering:geometricPrecision; text-rendering:geometricPrecision; image-rendering:optimizeQuality; fill-rule:evenodd; clip-rule:evenodd"
viewBox="0 0 9684 8678"
 xmlns:xlink="http://www.w3.org/1999/xlink">
 <defs>
  <style type="text/css">
   <![CDATA[
    .str2 {stroke:black;stroke-width:264.58}
    .str4 {stroke:#333333;stroke-width:132.29}
    .str5 {stroke:#666666;stroke-width:132.29}
    .str6 {stroke:#999999;stroke-width:132.29}
    .str3 {stroke:black;stroke-width:20}
    .str1 {stroke:#999999;stroke-width:20}
    .str0 {stroke:#CCCCCC;stroke-width:20}
    .fil2 {fill:none}
    .fil5 {fill:#0FAA00}
    .fil1 {fill:#999999}
    .fil0 {fill:#CCCCCC}
    .fil4 {fill:#F0E600}
    .fil3 {fill:red}
   ]]>
  </style>
 </defs>
 <g id="Слой_x0020_1">
  <metadata id="CorelCorpID_0Corel-Layer"/>
  <rect class="fil0 str0" x="4062" y="6443" width="3942" height="318"/>
  <rect class="fil0 str0" x="4062" y="5884" width="3942" height="318"/>
  <rect class="fil0 str0" x="4062" y="5329" width="3942" height="318"/>
  <rect class="fil1 str1" x="1945" y="5212" width="1799" height="1614"/>
  <rect class="fil2 str2" x="4736" y="6954" width="212" height="1217"/>
  <rect class="fil2 str2" x="2806" y="8217" width="4048" height="262"/>
  <rect class="fil2 str3" x="331" y="344" width="9009" height="450"/>
  <ellipse class="fil3 str4" cx="754" cy="582" rx="66" ry="53"/>
  <ellipse class="fil4 str5" cx="1098" cy="582" rx="66" ry="53"/>
  <ellipse class="fil5 str6" cx="1442" cy="582" rx="66" ry="53"/>
  <rect class="fil2 str3" x="1756" y="476" width="7306" height="211" rx="88" ry="53"/>
  <rect class="fil1 str1" x="1945" y="1508" width="1799" height="1614"/>
  <rect class="fil1 str1" x="1945" y="3360" width="1799" height="1614"/>
  <rect class="fil0 str0" x="4062" y="2741" width="3942" height="318"/>
  <rect class="fil0 str0" x="4062" y="2183" width="3942" height="318"/>
  <rect class="fil0 str0" x="4062" y="1627" width="3942" height="318"/>
  <rect class="fil0 str0" x="4062" y="4593" width="3942" height="318"/>
  <rect class="fil0 str0" x="4062" y="4035" width="3942" height="318"/>
  <rect class="fil0 str0" x="4062" y="3479" width="3942" height="318"/>
  <rect class="fil2 str2" x="212" y="238" width="9260" height="6482" rx="470" ry="476"/>
 </g>
</svg>
