<?xml version="1.0" encoding="UTF-8"?>
<!DOCTYPE svg PUBLIC "-//W3C//DTD SVG 1.1//EN" "http://www.w3.org/Graphics/SVG/1.1/DTD/svg11.dtd">
<!-- Creator: CorelDRAW X7 -->
<svg xmlns="http://www.w3.org/2000/svg" xml:space="preserve" width="105.833mm" height="105.833mm" version="1.1" style="shape-rendering:geometricPrecision; text-rendering:geometricPrecision; image-rendering:optimizeQuality; fill-rule:evenodd; clip-rule:evenodd"
viewBox="0 0 10583 10583"
 xmlns:xlink="http://www.w3.org/1999/xlink">
 <defs>
  <style type="text/css">
   <![CDATA[
    .fil0 {fill:black}
   ]]>
  </style>
 </defs>
 <g id="Слой_x0020_1">
  <metadata id="CorelCorpID_0Corel-Layer"/>
  <g id="facebok.svg">
   <g>
    <path class="fil0" d="M1391 7872c688,0 1245,558 1245,1246 0,635 -475,1159 -1089,1236l0 -925 428 0 39 -311 -467 0 0 -156c0,-86 69,-155 155,-155l312 0 0 -312 -312 0c-258,0 -467,209 -467,467l0 156 -233 0 0 311 233 0 0 616 0 279 0 30c-614,-77 -1089,-601 -1089,-1236 0,-688 557,-1246 1245,-1246z"/>
   </g>
   <g>
   </g>
   <g>
   </g>
   <g>
   </g>
   <g>
   </g>
   <g>
   </g>
   <g>
   </g>
   <g>
   </g>
   <g>
   </g>
   <g>
   </g>
   <g>
   </g>
   <g>
   </g>
   <g>
   </g>
   <g>
   </g>
   <g>
   </g>
   <g>
   </g>
  </g>
  <g id="instagram19.svg">
   <g>
    <g>
     <g>
      <path class="fil0" d="M8991 3553c150,0 272,-122 272,-272 0,-59 -20,-114 -52,-159 -49,-68 -129,-113 -220,-113 -91,0 -171,45 -221,113 -32,45 -51,100 -51,159 -1,150 122,272 272,272z"/>
      <polygon class="fil0" points="9585,2948 9585,2720 9585,2686 9551,2686 9323,2687 9324,2949 "/>
      <path class="fil0" d="M8991 1921c-750,0 -1360,610 -1360,1360 0,749 610,1359 1360,1359 749,0 1359,-610 1359,-1359 0,-750 -610,-1360 -1359,-1360zm773 1201l0 633c0,165 -134,299 -299,299l-949 0c-165,0 -299,-134 -299,-299l0 -633 0 -315c0,-165 134,-299 299,-299l949 0c165,0 299,134 299,299l0 315z"/>
      <path class="fil0" d="M9414 3281c0,233 -190,423 -423,423 -234,0 -423,-190 -423,-423 0,-56 11,-110 31,-159l-231 0 0 633c0,82 67,148 148,148l949 0c82,0 148,-66 148,-148l0 -633 -231 0c20,49 32,103 32,159z"/>
     </g>
    </g>
   </g>
   <g>
   </g>
   <g>
   </g>
   <g>
   </g>
   <g>
   </g>
   <g>
   </g>
   <g>
   </g>
   <g>
   </g>
   <g>
   </g>
   <g>
   </g>
   <g>
   </g>
   <g>
   </g>
   <g>
   </g>
   <g>
   </g>
   <g>
   </g>
   <g>
   </g>
  </g>
  <g id="twitter.svg">
   <g>
    <g>
     <path class="fil0" d="M2598 503c-1037,0 -1881,844 -1881,1881 0,1038 844,1882 1881,1882 1038,0 1882,-844 1882,-1882 0,-1037 -844,-1881 -1882,-1881zm839 1451c1,18 2,37 2,56 0,572 -436,1232 -1232,1232 -245,0 -473,-72 -664,-195 34,4 68,6 103,6 203,0 390,-69 538,-185 -190,-3 -350,-129 -405,-301 27,5 54,8 82,8 39,0 78,-5 114,-15 -198,-40 -347,-215 -347,-425 0,-2 0,-3 0,-5 58,32 125,52 196,54 -116,-78 -193,-210 -193,-360 0,-80 21,-154 59,-218 213,262 532,434 892,452 -7,-31 -11,-64 -11,-98 0,-240 194,-433 433,-433 125,0 237,52 316,136 99,-19 191,-55 275,-105 -32,101 -101,186 -190,240 87,-11 171,-34 248,-68 -57,86 -131,163 -216,224z"/>
    </g>
   </g>
   <g>
   </g>
   <g>
   </g>
   <g>
   </g>
   <g>
   </g>
   <g>
   </g>
   <g>
   </g>
   <g>
   </g>
   <g>
   </g>
   <g>
   </g>
   <g>
   </g>
   <g>
   </g>
   <g>
   </g>
   <g>
   </g>
   <g>
   </g>
   <g>
   </g>
  </g>
  <g id="vk5.svg">
   <g>
    <path class="fil0" d="M5517 4646c-1574,0 -2850,1276 -2850,2850 0,1574 1276,2849 2850,2849 1573,0 2849,-1275 2849,-2849 0,-1574 -1276,-2850 -2849,-2850zm1445 3158c133,130 273,252 393,395 52,63 102,129 140,202 54,105 5,220 -89,227l-583 0c-151,12 -271,-49 -372,-152 -81,-82 -156,-170 -234,-255 -32,-35 -65,-67 -105,-93 -79,-52 -149,-36 -194,47 -47,85 -57,178 -62,273 -6,137 -48,173 -186,180 -295,13 -575,-31 -835,-180 -230,-131 -407,-317 -562,-526 -302,-409 -533,-858 -740,-1319 -47,-104 -13,-160 102,-162 190,-4 381,-3 572,0 77,1 128,45 158,118 103,254 229,495 388,718 42,60 85,119 146,161 68,47 119,31 151,-44 20,-48 29,-99 34,-151 15,-176 17,-352 -10,-527 -16,-110 -78,-181 -187,-202 -56,-10 -48,-31 -21,-63 47,-55 92,-89 180,-89l659 0c104,20 127,67 142,172l0 733c-1,40 21,160 93,187 59,19 97,-28 132,-65 158,-168 271,-366 372,-571 44,-90 83,-184 120,-277 28,-70 71,-104 149,-103l635 1c19,0 38,0 57,3 107,19 136,65 103,169 -52,164 -154,301 -253,438 -106,147 -219,288 -324,436 -96,134 -89,202 31,319z"/>
   </g>
   <g>
   </g>
   <g>
   </g>
   <g>
   </g>
   <g>
   </g>
   <g>
   </g>
   <g>
   </g>
   <g>
   </g>
   <g>
   </g>
   <g>
   </g>
   <g>
   </g>
   <g>
   </g>
   <g>
   </g>
   <g>
   </g>
   <g>
   </g>
   <g>
   </g>
  </g>
 </g>
</svg>
